<?xml version="1.0" encoding="UTF-8" ?>
<!DOCTYPE svg PUBLIC "-//W3C//DTD SVG 1.1//EN" "http://www.w3.org/Graphics/SVG/1.1/DTD/svg11.dtd">
<svg width="1024pt" height="1024pt" viewBox="0 0 1024 1024" version="1.1" xmlns="http://www.w3.org/2000/svg">
<path fill="#6fd62c" opacity="1.00" d=" M 275.05 322.02 C 305.54 296.83 345.52 283.43 385.02 285.21 C 394.31 284.51 403.60 285.18 412.91 285.19 C 420.27 284.23 427.64 285.81 435.01 285.00 C 468.65 285.55 502.35 284.84 535.97 285.18 C 548.62 284.82 561.30 285.67 573.95 284.87 C 579.64 285.42 585.33 284.31 591.02 285.17 C 614.34 285.11 637.61 285.21 660.93 285.08 C 666.03 285.36 671.16 284.22 676.23 285.19 C 677.34 304.21 672.05 323.29 663.17 340.02 C 656.97 352.42 648.65 364.06 637.41 372.37 C 622.69 383.62 604.75 390.17 586.46 392.55 C 567.40 395.07 548.15 393.69 529.00 394.07 C 492.87 394.08 456.59 410.45 434.07 438.94 C 429.68 444.52 425.67 450.46 422.79 456.97 C 421.06 457.27 419.37 457.18 417.70 456.69 C 417.62 456.96 417.45 457.49 417.36 457.75 L 417.25 458.10 C 411.48 459.46 406.10 462.79 402.77 467.75 C 398.18 474.53 397.17 483.51 399.81 491.22 C 402.74 498.50 408.97 504.33 416.35 506.95 C 416.50 515.63 416.56 524.34 415.94 533.01 C 415.49 545.41 416.78 557.99 414.16 570.23 C 411.02 584.66 405.33 598.64 396.58 610.59 C 385.50 625.97 370.07 638.13 352.67 645.60 C 322.35 658.27 286.19 656.46 257.41 640.53 C 252.76 638.04 248.67 634.68 244.28 631.80 C 229.07 607.15 220.06 578.81 216.85 550.07 C 214.74 529.78 215.99 509.34 215.66 488.98 C 216.01 468.28 214.53 447.45 217.55 426.91 C 223.15 386.56 243.30 347.88 275.05 322.02 Z" />
<path fill="#42952a" opacity="1.00" d=" M 676.23 285.19 C 691.04 285.42 706.07 284.10 720.63 287.54 C 740.82 291.83 760.02 301.65 774.56 316.42 C 787.03 328.66 795.98 344.75 798.76 362.08 C 802.00 381.26 797.60 401.53 786.70 417.65 C 779.18 429.30 768.46 438.71 756.32 445.32 C 739.08 454.42 719.27 457.21 699.98 456.56 C 612.30 456.56 524.61 456.55 436.93 456.56 C 430.36 456.21 423.86 457.17 417.36 457.75 C 417.45 457.49 417.62 456.96 417.70 456.69 C 419.37 457.18 421.06 457.27 422.79 456.97 C 425.67 450.46 429.68 444.52 434.07 438.94 C 456.59 410.45 492.87 394.08 529.00 394.07 C 548.15 393.69 567.40 395.07 586.46 392.55 C 604.75 390.17 622.69 383.62 637.41 372.37 C 648.65 364.06 656.97 352.42 663.17 340.02 C 672.05 323.29 677.34 304.21 676.23 285.19 Z" />
<path fill="#3e773b" opacity="1.00" d=" M 416.35 506.95 C 421.70 508.83 427.31 509.85 433.00 509.66 C 509.38 509.77 585.77 509.58 662.15 509.65 C 655.92 515.63 649.47 521.56 644.93 529.00 C 638.09 539.53 633.84 551.56 631.48 563.86 C 623.74 601.20 607.59 637.23 582.32 666.03 C 556.94 695.02 523.20 716.81 486.01 727.12 C 440.86 739.87 391.86 736.35 348.06 720.10 C 314.65 707.43 284.08 686.31 262.09 657.96 C 255.64 649.62 249.52 640.94 244.28 631.80 C 248.67 634.68 252.76 638.04 257.41 640.53 C 286.19 656.46 322.35 658.27 352.67 645.60 C 370.07 638.13 385.50 625.97 396.58 610.59 C 405.33 598.64 411.02 584.66 414.16 570.23 C 416.78 557.99 415.49 545.41 415.94 533.01 C 416.56 524.34 416.50 515.63 416.35 506.95 Z" />
</svg>
